<?xml version="1.0" encoding="UTF-8"?>
<!-- Variant 1: Dark Studio — warm gold spotlight -->
<svg xmlns="http://www.w3.org/2000/svg" viewBox="0 0 1200 630" width="1200" height="630">
  <defs>
    <linearGradient id="bg" x1="0" y1="0" x2="1200" y2="630" gradientUnits="userSpaceOnUse">
      <stop offset="0%" stop-color="#080808"/>
      <stop offset="100%" stop-color="#121220"/>
    </linearGradient>
    <radialGradient id="spot" cx="580" cy="210" r="520" gradientUnits="userSpaceOnUse">
      <stop offset="0%" stop-color="#c89818" stop-opacity="0.22"/>
      <stop offset="55%" stop-color="#c89818" stop-opacity="0.06"/>
      <stop offset="100%" stop-color="#000000" stop-opacity="0"/>
    </radialGradient>
    <linearGradient id="bm" x1="0" y1="140" x2="0" y2="320" gradientUnits="userSpaceOnUse">
      <stop offset="0%"   stop-color="#f8e870"/>
      <stop offset="22%"  stop-color="#e0b030"/>
      <stop offset="58%"  stop-color="#b08818"/>
      <stop offset="85%"  stop-color="#785800"/>
      <stop offset="100%" stop-color="#3a2400"/>
    </linearGradient>
    <linearGradient id="bv" x1="478" y1="0" x2="600" y2="0" gradientUnits="userSpaceOnUse">
      <stop offset="0%"   stop-color="#f8e870"/>
      <stop offset="28%"  stop-color="#d0a020"/>
      <stop offset="72%"  stop-color="#946c10"/>
      <stop offset="100%" stop-color="#4c3200"/>
    </linearGradient>
  </defs>
  <rect width="1200" height="630" fill="url(#bg)"/>
  <rect width="1200" height="630" fill="url(#spot)"/>
  <circle cx="1080" cy="55"  r="260" fill="#d4a020" fill-opacity="0.025"/>
  <circle cx="110"  cy="590" r="210" fill="#d4a020" fill-opacity="0.018"/>
  <!-- Trumpet -->
  <ellipse cx="240" cy="210" rx="30" ry="18" fill="url(#bm)"/>
  <ellipse cx="234" cy="204" rx="15" ry="5"  fill="white" fill-opacity="0.42"/>
  <rect x="238" y="199" width="122" height="22" rx="11" fill="url(#bm)"/>
  <rect x="250" y="200" width="100" height="6"  rx="3"  fill="white" fill-opacity="0.36"/>
  <rect x="352" y="197" width="420" height="26" rx="13" fill="url(#bm)"/>
  <rect x="366" y="198" width="392" height="8"  rx="4"  fill="white" fill-opacity="0.30"/>
  <rect x="478" y="147" width="26" height="90" rx="13" fill="url(#bv)"/>
  <rect x="524" y="147" width="26" height="90" rx="13" fill="url(#bv)"/>
  <rect x="570" y="147" width="26" height="90" rx="13" fill="url(#bv)"/>
  <rect x="480" y="151" width="8"  height="82" rx="4"  fill="white" fill-opacity="0.30"/>
  <rect x="526" y="151" width="8"  height="82" rx="4"  fill="white" fill-opacity="0.30"/>
  <rect x="572" y="151" width="8"  height="82" rx="4"  fill="white" fill-opacity="0.30"/>
  <ellipse cx="491" cy="147" rx="13" ry="7" fill="#f0d060"/>
  <ellipse cx="537" cy="147" rx="13" ry="7" fill="#f0d060"/>
  <ellipse cx="583" cy="147" rx="13" ry="7" fill="#f0d060"/>
  <ellipse cx="488" cy="144" rx="7"  ry="3"  fill="white" fill-opacity="0.52"/>
  <ellipse cx="534" cy="144" rx="7"  ry="3"  fill="white" fill-opacity="0.52"/>
  <ellipse cx="580" cy="144" rx="7"  ry="3"  fill="white" fill-opacity="0.52"/>
  <ellipse cx="863" cy="210" rx="136" ry="104" fill="url(#bm)"/>
  <ellipse cx="855" cy="165" rx="110" ry="15"  fill="white" fill-opacity="0.22"/>
  <ellipse cx="863" cy="210" rx="96"  ry="73"  fill="url(#bg)"/>
  <ellipse cx="868" cy="214" rx="80"  ry="59"  fill="black" fill-opacity="0.58"/>
  <ellipse cx="570" cy="345" rx="380" ry="28" fill="#c89818" fill-opacity="0.07"/>
</svg>
