<?xml version="1.0" encoding="UTF-8"?>
<svg xmlns="http://www.w3.org/2000/svg" viewBox="0 0 1200 630" width="1200" height="630">
  <defs>
    <linearGradient id="bg" x1="0" y1="0" x2="1200" y2="630" gradientUnits="userSpaceOnUse">
      <stop offset="0%" stop-color="#5eead4"/>
      <stop offset="100%" stop-color="#0f766e"/>
    </linearGradient>
    <radialGradient id="glow" cx="600" cy="215" r="420" gradientUnits="userSpaceOnUse">
      <stop offset="0%" stop-color="white" stop-opacity="0.16"/>
      <stop offset="100%" stop-color="white" stop-opacity="0"/>
    </radialGradient>
  </defs>
  <rect width="1200" height="630" fill="url(#bg)"/>
  <rect width="1200" height="630" fill="url(#glow)"/>
  <circle cx="1090" cy="75" r="230" fill="white" fill-opacity="0.05"/>
  <circle cx="120" cy="570" r="180" fill="white" fill-opacity="0.05"/>
  <circle cx="600" cy="640" r="310" fill="white" fill-opacity="0.04"/>
  <!-- Trumpet silhouette -->
  <ellipse cx="240" cy="210" rx="30" ry="18" fill="white" fill-opacity="0.38"/>
  <rect x="240" y="199" width="122" height="22" rx="11" fill="white" fill-opacity="0.32"/>
  <rect x="352" y="197" width="416" height="26" rx="13" fill="white" fill-opacity="0.28"/>
  <rect x="478" y="147" width="26" height="90" rx="13" fill="white" fill-opacity="0.42"/>
  <rect x="524" y="147" width="26" height="90" rx="13" fill="white" fill-opacity="0.42"/>
  <rect x="570" y="147" width="26" height="90" rx="13" fill="white" fill-opacity="0.42"/>
  <ellipse cx="491" cy="147" rx="13" ry="7" fill="white" fill-opacity="0.54"/>
  <ellipse cx="537" cy="147" rx="13" ry="7" fill="white" fill-opacity="0.54"/>
  <ellipse cx="583" cy="147" rx="13" ry="7" fill="white" fill-opacity="0.54"/>
  <ellipse cx="863" cy="210" rx="115" ry="88" fill="none" stroke="white" stroke-width="40" stroke-opacity="0.22"/>
</svg>
